<svg xmlns="http://www.w3.org/2000/svg" viewBox="0 0 50 50"><path d="M31.469 1.938L31.062 2 4.875 5.719l-1.031.125.156 1 3.406 22.093.032.094v.063l5.812 18.218.281.938.969-.281 27.688-8.313.624-.187.094-.657 3.094-25 .063-.562-.438-.344L31.812 2.22zm-.532 2.125l11.72 9.093-10.688 2.125-5.344-5.75-.344-.406-.531.094-18.906 2.875-.688-4.563zm-5.406 7.218l5.344 5.781.375.438.563-.125 5.28-1.063c.137.391.47.688.907.688.55 0 1-.45 1-1v-.063l4.844-.968v.062A.99.99 0 0 0 43 16c0 .406.25.75.594.906l-1.719 13.688c-.16-.34-.477-.594-.875-.594-.55 0-1 .45-1 1s.45 1 1 1c.3 0 .566-.133.75-.344l-.531 4.407c-.074-.02-.137-.063-.219-.063-.55 0-1 .45-1 1 0 .508.387.902.875.969l-7.969 2.375c.043-.114.094-.215.094-.344 0-.55-.45-1-1-1s-1 .45-1 1c0 .324.164.598.406.781L24 43c0-.55-.45-1-1-1s-1 .45-1 1c0 .21.074.402.188.563l-7.344 2.187-1.688-5.25c.176.293.48.5.844.5.55 0 1-.45 1-1s-.45-1-1-1-1 .45-1 1l-2.625-8.219A.996.996 0 0 0 11 32c.059 0 .102-.023.156-.031l1.281 4.312.282.907.906-.22 2.625-.624c-.152.176-.25.406-.25.656 0 .55.45 1 1 1s1-.45 1-1c0-.438-.293-.8-.688-.938l6.22-1.5 1.28-.312-.625-1.125-.687-1.281c.293-.176.5-.48.5-.844 0-.55-.45-1-1-1-.164 0-.3.055-.438.125l-.78-1.406-.345-.657-.468.094c.008-.054.031-.097.031-.156 0-.55-.45-1-1-1s-1 .45-1 1c0 .203.086.375.188.531l-7.47 1.5-.343.063A.949.949 0 0 0 11 30c-.473 0-.832.344-.938.781l-.687-2.125-.031-.125V28.5l-.875-5.656C8.773 22.672 9 22.375 9 22c0-.473-.344-.832-.781-.938l-.656-4.187c.136.07.273.125.437.125.55 0 1-.45 1-1s-.45-1-1-1c-.25 0-.48.098-.656.25l-.188-1.188 3.063-.468A.976.976 0 0 0 11 14c.426 0 .762-.281.906-.656l4.156-.625c-.027.094-.062.18-.062.281 0 .55.45 1 1 1s1-.45 1-1a.972.972 0 0 0-.188-.563zM23 12c-.55 0-1 .45-1 1s.45 1 1 1 1-.45 1-1-.45-1-1-1zm-9 3c-.55 0-1 .45-1 1s.45 1 1 1 1-.45 1-1-.45-1-1-1zm6 0a1.002 1.002 0 0 0-.625 1.781l-7.938 1.344A.933.933 0 0 0 11 18c-.3 0-.566.133-.75.344l-.406.062-1.281.219.53 1.188 1.782 4.093.063.125c-.52.04-.938.442-.938.969 0 .55.45 1 1 1s1-.45 1-1a.957.957 0 0 0-.156-.5l.156-.031 7.625-1.532 2.031 3.375.344.625.719-.156 5.468-1.218c.18.257.473.437.813.437a.996.996 0 0 0 .969-.813l2.25-.5 1.593-.375-1.03-1.25-.22-.25A.994.994 0 0 0 33 22c0-.55-.45-1-1-1-.262 0-.508.086-.688.25l-1.468-1.781c.082-.145.156-.293.156-.469 0-.55-.45-1-1-1a.927.927 0 0 0-.313.063L27 16c0-.55-.45-1-1-1-.473 0-.832.344-.938.781l-4.25.75c.102-.156.188-.328.188-.531 0-.55-.45-1-1-1zm5.813 2.688l4.375 5.375-7.22 1.593-2-3.375-.374-.593-.688.125-7.5 1.562-1-2.219zM35 18c-.55 0-1 .45-1 1s.45 1 1 1 1-.45 1-1-.45-1-1-1zm6 0c-.55 0-1 .45-1 1s.45 1 1 1 1-.45 1-1-.45-1-1-1zm-3 3c-.55 0-1 .45-1 1s.45 1 1 1 1-.45 1-1-.45-1-1-1zm-21 3c-.55 0-1 .45-1 1s.45 1 1 1 1-.45 1-1-.45-1-1-1zm18 0c-.55 0-1 .45-1 1s.45 1 1 1 1-.45 1-1-.45-1-1-1zm6 0c-.55 0-1 .45-1 1s.45 1 1 1 1-.45 1-1-.45-1-1-1zm-27 3c-.55 0-1 .45-1 1s.45 1 1 1 1-.45 1-1-.45-1-1-1zm12 0c-.55 0-1 .45-1 1s.45 1 1 1 1-.45 1-1-.45-1-1-1zm6 0c-.55 0-1 .45-1 1s.45 1 1 1 1-.45 1-1-.45-1-1-1zm6 0c-.55 0-1 .45-1 1s.45 1 1 1 1-.45 1-1-.45-1-1-1zm-9 3c-.55 0-1 .45-1 1s.45 1 1 1 1-.45 1-1-.45-1-1-1zm6 0c-.55 0-1 .45-1 1s.45 1 1 1 1-.45 1-1-.45-1-1-1zm-14.625.344l1.438 2.593-7.75 1.876-.907-3.063zM26 33c-.55 0-1 .45-1 1s.45 1 1 1 1-.45 1-1-.45-1-1-1zm6 0c-.55 0-1 .45-1 1s.45 1 1 1 1-.45 1-1-.45-1-1-1zm6 0c-.55 0-1 .45-1 1s.45 1 1 1 1-.45 1-1-.45-1-1-1zm-15 3c-.55 0-1 .45-1 1s.45 1 1 1 1-.45 1-1-.45-1-1-1zm6 0c-.55 0-1 .45-1 1s.45 1 1 1 1-.45 1-1-.45-1-1-1zm6 0c-.55 0-1 .45-1 1s.45 1 1 1 1-.45 1-1-.45-1-1-1zm-15 3c-.55 0-1 .45-1 1s.45 1 1 1 1-.45 1-1-.45-1-1-1zm6 0c-.55 0-1 .45-1 1s.45 1 1 1 1-.45 1-1-.45-1-1-1zm-9 3c-.55 0-1 .45-1 1s.45 1 1 1 1-.45 1-1-.45-1-1-1z"/></svg>