<svg height="511pt" viewBox="-60 0 511 511.99943" width="511pt" xmlns="http://www.w3.org/2000/svg"><path d="m388.679688 457.464844-109.984376-156.011719 58.007813-48.769531c2.941406-2.476563 4.820313-5.984375 5.253906-9.800782l8.015625-71.132812c.367188-3.257812-.339844-6.546875-2.019531-9.363281l-92.449219-155.066407c-3.542968-5.941406-10.6875-8.691406-17.296875-6.65625l-51.226562 15.765626c-.207031.0625-.414063.125-.617188.191406l-115.679687 35.601562c-5.523438 1.699219-9.578125 6.421875-10.425782 12.136719l-59.59375 402.109375c-1.214843 8.195312 4.445313 15.824219 12.640626 17.039062l108.304687 16.050782c.734375.109375 1.46875.164062 2.199219.164062 3.199218 0 6.339844-1.023437 8.9375-2.953125 3.195312-2.371093 5.320312-5.914062 5.902344-9.847656l14.453124-97.515625 174.613282 119.957031c2.5625 1.761719 5.53125 2.636719 8.492187 2.636719 3.230469 0 6.453125-1.039062 9.140625-3.105469l40.210938-30.894531c6.378906-4.898438 7.757812-13.960938 3.121094-20.535156zm-134.664063-174.457032-57.828125-8.570312 120.5-75.210938-3.875 34.34375zm-66.351563-126.832031 55.707032 53.445313-70.113282 43.761718zm48.105469-123.371093 78.890625 132.320312-45.039062 28.113281c-.007813-.007812-.015625-.015625-.023438-.023437l-76.539062-73.441406 11.464844-77.355469zm-147.222656 45.308593 84.199219-25.914062-31.722656 214.0625-78.632813-11.652344zm22.625 389.570313-78.632813-11.652344 25.453126-171.746094 78.632812 11.652344zm224.542969 10.777344-177.71875-122.085938 8.304687-56.039062 83.640625 12.394531 105.925782 150.253906zm0 0"/></svg>