<svg height="512pt" viewBox="0 0 512 512" width="512pt" xmlns="http://www.w3.org/2000/svg"><path d="m437.019531 74.980469c-48.351562-48.351563-112.640625-74.980469-181.019531-74.980469s-132.667969 26.628906-181.019531 74.980469c-48.351563 48.351562-74.980469 112.640625-74.980469 181.019531s26.628906 132.667969 74.980469 181.019531c48.351562 48.351563 112.640625 74.980469 181.019531 74.980469s132.667969-26.628906 181.019531-74.980469c48.351563-48.351562 74.980469-112.640625 74.980469-181.019531s-26.628906-132.667969-74.980469-181.019531zm-181.019531 407.019531c-124.617188 0-226-101.382812-226-226 0-64.578125 27.230469-122.90625 70.804688-164.132812-15.980469 60.914062-1.894532 127.113281 40.484374 176.84375l70.523438 82.753906c2.910156 3.410156 7.109375 5.269531 11.421875 5.269531 1.734375 0 3.488281-.300781 5.179687-.925781 5.898438-2.171875 9.816407-7.789063 9.816407-14.074219 0-93.707031 76.234375-169.9375 169.9375-169.9375h57.550781c10.492188 26.039063 16.28125 54.457031 16.28125 84.203125 0 124.617188-101.382812 226-226 226zm-109.101562-423.863281c32.367187-17.917969 69.5625-28.136719 109.101562-28.136719 82.980469 0 155.648438 44.964844 194.949219 111.796875h-42.78125c-97.695313 0-179.25 70.425781-196.550781 163.183594l-47.496094-55.730469c-45.808594-53.75-52.589844-130.21875-17.222656-191.113281zm0 0"/><path d="m222.378906 109.820312c13.140625 5.652344 30.277344 8.765626 48.265625 8.765626 17.984375 0 35.125-3.113282 48.261719-8.765626 23.152344-9.957031 26.609375-24.316406 26.609375-31.992187 0-7.671875-3.457031-22.03125-26.609375-31.988281-13.136719-5.652344-30.277344-8.765625-48.261719-8.765625-17.988281 0-35.125 3.113281-48.265625 8.765625-23.152344 9.957031-26.609375 24.316406-26.609375 31.988281 0 7.675781 3.457031 22.03125 26.609375 31.992187zm48.265625-42.746093c24.558594 0 39.726563 6.785156 44.046875 10.753906-4.320312 3.96875-19.488281 10.757813-44.046875 10.757813-24.558593 0-39.730469-6.789063-44.046875-10.757813 4.316406-3.96875 19.488282-10.753906 44.046875-10.753906zm0 0"/></svg>